<svg width="298" height="62" viewBox="0 0 298 62" fill="none" xmlns="http://www.w3.org/2000/svg">
<path fill-rule="evenodd" clip-rule="evenodd" d="M8.31376 61.8108H43.7706C44.9682 60.5426 45.7611 50.6486 46.0562 48.2589C46.6422 43.5124 47.2664 38.7931 47.8446 34.061L49.6051 20.1562C49.739 19.5366 54.0471 12.745 46.8164 9.78097C45.7239 6.94441 45.7371 3.00279 39.1687 4.58866C35.9622 1.00605 33.7179 1.34989 30.0507 2.94962C29.5302 2.5504 29.309 2.26509 28.6341 1.83829C28.03 1.45615 27.506 1.321 26.953 1H24.8594L21.7616 2.80827C17.8892 0.701213 14.9192 2.26211 12.92 4.59977C6.31013 2.93116 6.25984 7.12475 5.27228 9.78097C3.39835 10.5297 1.84805 11.8411 1.27434 13.9433C0.35539 17.3106 1.99991 17.9483 2.4794 20.1421C3.16487 23.2779 5.4084 43.3013 6.0295 48.2576C6.3214 50.5866 7.13102 60.5834 8.31376 61.8108Z" fill="#171717" stroke="#171717" stroke-width="0.2" stroke-miterlimit="22.9256" stroke-linecap="round" stroke-linejoin="round"/>
<path fill-rule="evenodd" clip-rule="evenodd" d="M13.7489 7.46373C12.5361 7.47093 9.87543 4.98004 8.20342 7.74505C7.61389 8.72001 7.73216 10.2857 8.5962 10.913C9.9955 11.929 10.4441 10.6128 11.2909 12.3513C11.3507 12.9273 10.0099 15.3381 6.33207 11.8775C3.5724 12.6611 2.62588 15.3681 4.1465 17.9603H47.9422C50.8189 12.8431 45.0247 11.7532 44.1302 11.3369C43.9441 9.75665 44.7161 8.88565 43.7758 7.57489C42.183 5.35452 38.5935 6.65172 38.9784 9.02363C39.2145 10.4791 40.4471 10.2991 39.8415 12.1742C38.2425 12.5786 37.5244 11.7204 36.9768 10.4422C36.1195 8.44068 36.8772 7.7737 37.285 6.13512C35.7907 3.81286 33.1205 3.32928 30.8887 5.35061C27.9358 8.02499 29.2047 2.47261 25.1165 3.41647C23.3784 3.81776 23.8336 5.10538 22.6378 5.65239C21.2134 6.3039 19.1087 2.30912 15.8133 4.9209C14.6313 5.85763 14.8338 6.75591 13.7489 7.46373Z" fill="#FEFEFE" stroke="#171717" stroke-width="0.2" stroke-miterlimit="22.9256" stroke-linecap="round" stroke-linejoin="round"/>
<path fill-rule="evenodd" clip-rule="evenodd" d="M31.5729 59.511C32.3856 59.5235 35.6212 59.7103 36.0525 59.2884C36.6071 58.4463 39.4048 23.8169 39.3995 20.2337L32.6875 20.2483C32.4454 23.7016 32.2666 28.2285 32.299 31.5727C32.3262 34.3803 35.8417 34.0885 35.6808 40.1975C35.6346 41.9521 35.1318 43.3737 34.3555 44.6677C32.8527 47.1725 32.0246 46.6645 31.8006 48.0556C31.6152 49.2068 31.3971 58.4314 31.5729 59.511Z" fill="#FEFEFE" stroke="#171717" stroke-width="0.2" stroke-miterlimit="22.9256" stroke-linecap="round" stroke-linejoin="round"/>
<path fill-rule="evenodd" clip-rule="evenodd" d="M20.5157 59.511C20.7502 58.0368 20.4827 50.0496 20.311 48.2937C20.122 46.3626 16.584 45.7341 16.4058 40.1975C16.3284 37.7937 17.1523 35.2675 18.7526 33.7249C19.4511 33.0515 19.7186 33.1276 19.7883 31.833C19.9452 28.9208 19.6203 23.3839 19.4007 20.3363L12.6891 20.2187L15.7502 58.581C15.9577 59.9994 16.6408 59.5703 20.5157 59.511Z" fill="#FEFEFE" stroke="#171717" stroke-width="0.2" stroke-miterlimit="22.9256" stroke-linecap="round" stroke-linejoin="round"/>
<path fill-rule="evenodd" clip-rule="evenodd" d="M13.3773 59.5259C13.6504 57.8141 10.7675 24.406 10.3022 20.3173L4.89856 20.2152C5.10807 25.4737 8.61885 49.3555 9.51321 57.3201C9.85861 60.3961 9.93685 59.4988 13.3773 59.5259Z" fill="#FEFEFE" stroke="#171717" stroke-width="0.2" stroke-miterlimit="22.9256" stroke-linecap="round" stroke-linejoin="round"/>
<path fill-rule="evenodd" clip-rule="evenodd" d="M38.7027 59.5259C42.8965 59.4932 42.0901 61.314 43.2049 52.2783C43.9222 46.4652 47.0383 24.0228 47.1902 20.2188L41.7859 20.2497C41.5694 22.1084 38.4575 57.9131 38.7027 59.5259Z" fill="#FEFEFE" stroke="#171717" stroke-width="0.2" stroke-miterlimit="22.9256" stroke-linecap="round" stroke-linejoin="round"/>
<path fill-rule="evenodd" clip-rule="evenodd" d="M24.8843 32.8347C14.7924 34.9367 18.1056 48.6726 27.5173 46.9034C30.9918 46.2502 34.0997 42.8315 33.2153 38.4255C32.5524 35.1231 28.9406 31.9898 24.8843 32.8347Z" fill="#FEFEFE" stroke="#171717" stroke-width="0.2" stroke-miterlimit="22.9256" stroke-linecap="round" stroke-linejoin="round"/>
<path fill-rule="evenodd" clip-rule="evenodd" d="M22.0743 31.1973C25.6935 30.1353 26.4055 30.1423 29.9749 31.1962L30.3563 20.2239L21.7616 20.2268L22.0743 31.1973Z" fill="#128AB4" stroke="#171717" stroke-width="0.2" stroke-miterlimit="22.9256" stroke-linecap="round" stroke-linejoin="round"/>
<path fill-rule="evenodd" clip-rule="evenodd" d="M22.963 59.491L29.0508 59.5153L29.4881 48.7746C26.0119 49.4769 26.0766 49.4768 22.6111 48.7743L22.963 59.491Z" fill="#FEFEFE" stroke="#171717" stroke-width="0.2" stroke-miterlimit="22.9256" stroke-linecap="round" stroke-linejoin="round"/>
<path fill-rule="evenodd" clip-rule="evenodd" d="M23.6957 11.7733C25.5144 11.7042 25.4463 10.135 27.6822 10.8769C29.3071 11.4162 29.0238 12.9885 29.7062 14.2549C33.0029 14.5406 31.2461 11.2329 30.6598 10.4137C28.1556 6.91411 25.0132 9.42139 23.5277 8.73487C22.5154 8.267 22.3531 7.96684 20.9603 8.05349C17.0863 8.29443 15.433 13.1967 18.7167 15.6139C20.9796 17.2797 23.5543 16.0586 22.0513 14.5477C21.5872 14.0812 17.7663 13.6328 19.6681 11.1211C21.3094 8.95368 23.2983 11.5638 23.6957 11.7733Z" fill="#171717" stroke="#171717" stroke-width="0.2" stroke-miterlimit="22.9256" stroke-linecap="round" stroke-linejoin="round"/>
<path fill-rule="evenodd" clip-rule="evenodd" d="M23.3557 45.299C21.4789 44.7778 19.7209 42.1205 19.8273 39.5205C19.9302 37.006 21.7956 34.8104 23.6725 34.2201L25.925 38.517C26.4511 37.9804 27.8975 35.0213 28.177 34.1807C30.2124 34.581 32.1728 37.0955 32.2488 39.6601C32.3296 42.3906 30.5139 44.7095 28.6457 45.3478C28.4139 44.8904 28.0465 44.2323 27.9397 43.7132C29.11 42.8421 29.945 42.3922 30.2819 40.6952C30.5902 39.1422 29.9668 37.4978 29.0654 36.8853C28.1606 38.0583 26.724 41.5526 25.8854 42.3466L22.9791 36.9642C22.5516 37.1872 22.8362 36.9812 22.5353 37.3297L21.9089 38.5522C20.9579 41.5868 23.1033 42.8168 24.1554 43.7361L23.3557 45.299ZM34.1019 41.1999C34.984 36.4109 31.3907 32.59 27.3907 31.9515C22.5436 31.1778 18.6712 34.5605 17.9821 38.4651C17.1155 43.376 20.6837 47.1431 24.7316 47.801C29.6302 48.5972 33.3826 45.1056 34.1019 41.1999Z" fill="#171717"/>
<path fill-rule="evenodd" clip-rule="evenodd" d="M13.3773 59.5259C13.6504 57.8141 10.7675 24.406 10.3022 20.3173L4.89856 20.2152C5.10807 25.4737 8.61885 49.3555 9.51321 57.3201C9.85861 60.3961 9.93685 59.4988 13.3773 59.5259Z" fill="#128AB4" stroke="black" stroke-width="0.2" stroke-miterlimit="22.9256" stroke-linecap="round" stroke-linejoin="round"/>
<path fill-rule="evenodd" clip-rule="evenodd" d="M22.6111 48.7743L22.963 59.491L29.0508 59.5153L29.4881 48.7746C26.0119 49.4769 26.0766 49.4768 22.6111 48.7743Z" fill="#128AB4" stroke="black" stroke-width="0.2" stroke-miterlimit="22.9256" stroke-linecap="round" stroke-linejoin="round"/>
<path fill-rule="evenodd" clip-rule="evenodd" d="M41.7859 20.2497C41.5694 22.1084 38.4575 57.9131 38.7027 59.5259C42.8965 59.4932 42.0901 61.314 43.2049 52.2783C43.9222 46.4652 47.0383 24.0228 47.1902 20.2188L41.7859 20.2497Z" fill="#128AB4" stroke="black" stroke-width="0.2" stroke-miterlimit="22.9256" stroke-linecap="round" stroke-linejoin="round"/>
<path d="M64.3301 22.4062L72.6973 43.2891L81.0645 22.4062H85.4414V48H82.0664V38.0332L82.3828 27.2754L73.9805 48H71.3965L63.0117 27.3281L63.3457 38.0332V48H59.9707V22.4062H64.3301ZM90.0293 38.3145C90.0293 36.4512 90.3926 34.7754 91.1191 33.2871C91.8574 31.7988 92.877 30.6504 94.1777 29.8418C95.4902 29.0332 96.9844 28.6289 98.6602 28.6289C101.25 28.6289 103.342 29.5254 104.936 31.3184C106.541 33.1113 107.344 35.4961 107.344 38.4727V38.7012C107.344 40.5527 106.986 42.2168 106.271 43.6934C105.568 45.1582 104.555 46.3008 103.23 47.1211C101.918 47.9414 100.406 48.3516 98.6953 48.3516C96.1172 48.3516 94.0254 47.4551 92.4199 45.6621C90.8262 43.8691 90.0293 41.4961 90.0293 38.543V38.3145ZM93.2988 38.7012C93.2988 40.8105 93.7852 42.5039 94.7578 43.7812C95.7422 45.0586 97.0547 45.6973 98.6953 45.6973C100.348 45.6973 101.66 45.0527 102.633 43.7637C103.605 42.4629 104.092 40.6465 104.092 38.3145C104.092 36.2285 103.594 34.541 102.598 33.252C101.613 31.9512 100.301 31.3008 98.6602 31.3008C97.0547 31.3008 95.7598 31.9395 94.7754 33.2168C93.791 34.4941 93.2988 36.3223 93.2988 38.7012ZM117.416 43.5879L122.127 28.9805H125.449L118.629 48H116.15L109.26 28.9805H112.582L117.416 43.5879ZM132.111 48H128.859V28.9805H132.111V48ZM128.596 23.9355C128.596 23.4082 128.754 22.9629 129.07 22.5996C129.398 22.2363 129.879 22.0547 130.512 22.0547C131.145 22.0547 131.625 22.2363 131.953 22.5996C132.281 22.9629 132.445 23.4082 132.445 23.9355C132.445 24.4629 132.281 24.9023 131.953 25.2539C131.625 25.6055 131.145 25.7812 130.512 25.7812C129.879 25.7812 129.398 25.6055 129.07 25.2539C128.754 24.9023 128.596 24.4629 128.596 23.9355ZM145.225 48.3516C142.646 48.3516 140.549 47.5078 138.932 45.8203C137.314 44.1211 136.506 41.8535 136.506 39.0176V38.4199C136.506 36.5332 136.863 34.8516 137.578 33.375C138.305 31.8867 139.312 30.7266 140.602 29.8945C141.902 29.0508 143.309 28.6289 144.82 28.6289C147.293 28.6289 149.215 29.4434 150.586 31.0723C151.957 32.7012 152.643 35.0332 152.643 38.0684V39.4219H139.758C139.805 41.2969 140.35 42.8145 141.393 43.9746C142.447 45.123 143.783 45.6973 145.4 45.6973C146.549 45.6973 147.521 45.4629 148.318 44.9941C149.115 44.5254 149.812 43.9043 150.41 43.1309L152.396 44.6777C150.803 47.127 148.412 48.3516 145.225 48.3516ZM144.82 31.3008C143.508 31.3008 142.406 31.7812 141.516 32.7422C140.625 33.6914 140.074 35.0273 139.863 36.75H149.391V36.5039C149.297 34.8516 148.852 33.5742 148.055 32.6719C147.258 31.7578 146.18 31.3008 144.82 31.3008ZM167.496 42.9551C167.496 42.0762 167.162 41.3965 166.494 40.916C165.838 40.4238 164.684 40.002 163.031 39.6504C161.391 39.2988 160.084 38.877 159.111 38.3848C158.15 37.8926 157.436 37.3066 156.967 36.627C156.51 35.9473 156.281 35.1387 156.281 34.2012C156.281 32.6426 156.938 31.3242 158.25 30.2461C159.574 29.168 161.262 28.6289 163.312 28.6289C165.469 28.6289 167.215 29.1855 168.551 30.2988C169.898 31.4121 170.572 32.8359 170.572 34.5703H167.303C167.303 33.6797 166.922 32.9121 166.16 32.2676C165.41 31.623 164.461 31.3008 163.312 31.3008C162.129 31.3008 161.203 31.5586 160.535 32.0742C159.867 32.5898 159.533 33.2637 159.533 34.0957C159.533 34.8809 159.844 35.4727 160.465 35.8711C161.086 36.2695 162.205 36.6504 163.822 37.0137C165.451 37.377 166.77 37.8105 167.777 38.3145C168.785 38.8184 169.529 39.4277 170.01 40.1426C170.502 40.8457 170.748 41.707 170.748 42.7266C170.748 44.4258 170.068 45.791 168.709 46.8223C167.35 47.8418 165.586 48.3516 163.418 48.3516C161.895 48.3516 160.547 48.082 159.375 47.543C158.203 47.0039 157.283 46.2539 156.615 45.293C155.959 44.3203 155.631 43.2715 155.631 42.1465H158.883C158.941 43.2363 159.375 44.1035 160.184 44.748C161.004 45.3809 162.082 45.6973 163.418 45.6973C164.648 45.6973 165.633 45.4512 166.371 44.959C167.121 44.4551 167.496 43.7871 167.496 42.9551ZM190.664 22.4062L197.238 40.9688L203.777 22.4062H210.703V48H205.412V41.0039L205.939 28.9277L199.031 48H195.41L188.52 28.9453L189.047 41.0039V48H183.773V22.4062H190.664ZM225.996 48C225.762 47.543 225.592 46.9746 225.486 46.2949C224.256 47.666 222.656 48.3516 220.688 48.3516C218.824 48.3516 217.277 47.8125 216.047 46.7344C214.828 45.6562 214.219 44.2969 214.219 42.6562C214.219 40.6406 214.963 39.0938 216.451 38.0156C217.951 36.9375 220.113 36.3926 222.938 36.3809H225.275V35.291C225.275 34.4121 225.047 33.709 224.59 33.1816C224.145 32.6543 223.436 32.3906 222.463 32.3906C221.607 32.3906 220.934 32.5957 220.441 33.0059C219.961 33.416 219.721 33.9785 219.721 34.6934H214.641C214.641 33.5918 214.98 32.5723 215.66 31.6348C216.34 30.6973 217.301 29.9648 218.543 29.4375C219.785 28.8984 221.18 28.6289 222.727 28.6289C225.07 28.6289 226.928 29.2207 228.299 30.4043C229.682 31.5762 230.373 33.2285 230.373 35.3613V43.6055C230.385 45.4102 230.637 46.7754 231.129 47.7012V48H225.996ZM221.795 44.4668C222.545 44.4668 223.236 44.3027 223.869 43.9746C224.502 43.6348 224.971 43.1836 225.275 42.6211V39.3516H223.377C220.834 39.3516 219.48 40.2305 219.316 41.9883L219.299 42.2871C219.299 42.9199 219.521 43.4414 219.967 43.8516C220.412 44.2617 221.021 44.4668 221.795 44.4668ZM244.576 42.7441C244.576 42.123 244.266 41.6367 243.645 41.2852C243.035 40.9219 242.051 40.5996 240.691 40.3184C236.168 39.3691 233.906 37.4473 233.906 34.5527C233.906 32.8652 234.604 31.459 235.998 30.334C237.404 29.1973 239.238 28.6289 241.5 28.6289C243.914 28.6289 245.842 29.1973 247.283 30.334C248.736 31.4707 249.463 32.9473 249.463 34.7637H244.383C244.383 34.0371 244.148 33.4395 243.68 32.9707C243.211 32.4902 242.479 32.25 241.482 32.25C240.627 32.25 239.965 32.4434 239.496 32.8301C239.027 33.2168 238.793 33.709 238.793 34.3066C238.793 34.8691 239.057 35.3262 239.584 35.6777C240.123 36.0176 241.025 36.3164 242.291 36.5742C243.557 36.8203 244.623 37.1016 245.49 37.418C248.174 38.4023 249.516 40.1074 249.516 42.5332C249.516 44.2676 248.771 45.6738 247.283 46.752C245.795 47.8184 243.873 48.3516 241.518 48.3516C239.924 48.3516 238.506 48.0703 237.264 47.5078C236.033 46.9336 235.066 46.1543 234.363 45.1699C233.66 44.1738 233.309 43.1016 233.309 41.9531H238.125C238.172 42.8555 238.506 43.5469 239.127 44.0273C239.748 44.5078 240.58 44.748 241.623 44.748C242.596 44.748 243.328 44.5664 243.82 44.2031C244.324 43.8281 244.576 43.3418 244.576 42.7441ZM258.885 24.3047V28.9805H262.137V32.707H258.885V42.1992C258.885 42.9023 259.02 43.4062 259.289 43.7109C259.559 44.0156 260.074 44.168 260.836 44.168C261.398 44.168 261.896 44.127 262.33 44.0449V47.8945C261.334 48.1992 260.309 48.3516 259.254 48.3516C255.691 48.3516 253.875 46.5527 253.805 42.9551V32.707H251.027V28.9805H253.805V24.3047H258.885ZM273.721 48.3516C270.932 48.3516 268.658 47.4961 266.9 45.7852C265.154 44.0742 264.281 41.7949 264.281 38.9473V38.4551C264.281 36.5449 264.65 34.8398 265.389 33.3398C266.127 31.8281 267.17 30.668 268.518 29.8594C269.877 29.0391 271.424 28.6289 273.158 28.6289C275.76 28.6289 277.805 29.4492 279.293 31.0898C280.793 32.7305 281.543 35.0566 281.543 38.0684V40.1426H269.432C269.596 41.3848 270.088 42.3809 270.908 43.1309C271.74 43.8809 272.789 44.2559 274.055 44.2559C276.012 44.2559 277.541 43.5469 278.643 42.1289L281.139 44.9238C280.377 46.002 279.346 46.8457 278.045 47.4551C276.744 48.0527 275.303 48.3516 273.721 48.3516ZM273.141 32.7422C272.133 32.7422 271.312 33.082 270.68 33.7617C270.059 34.4414 269.66 35.4141 269.484 36.6797H276.551V36.2754C276.527 35.1504 276.223 34.2832 275.637 33.6738C275.051 33.0527 274.219 32.7422 273.141 32.7422ZM295.131 33.7441C294.439 33.6504 293.83 33.6035 293.303 33.6035C291.381 33.6035 290.121 34.2539 289.523 35.5547V48H284.443V28.9805H289.242L289.383 31.248C290.402 29.502 291.814 28.6289 293.619 28.6289C294.182 28.6289 294.709 28.7051 295.201 28.8574L295.131 33.7441Z" fill="white"/>
</svg>
